<?xml version="1.0" encoding="utf-8"?>
<!-- Generator: Adobe Illustrator 16.0.4, SVG Export Plug-In . SVG Version: 6.00 Build 0)  -->
<!DOCTYPE svg PUBLIC "-//W3C//DTD SVG 1.1//EN" "http://www.w3.org/Graphics/SVG/1.1/DTD/svg11.dtd">
<svg version="1.1" id="Layer_1" xmlns="http://www.w3.org/2000/svg" xmlns:xlink="http://www.w3.org/1999/xlink" x="0px" y="0px"
	 width="335.708px" height="335.802px" viewBox="0 0 335.708 335.802" enable-background="new 0 0 335.708 335.802"
	 xml:space="preserve">
<path fill="#A5A7A8" d="M141.355,259.71l23.572-35.369l23.583,35.369l-23.576,13.599L141.355,259.71z M141.355,78.856l23.578-13.603
	l23.576,13.601l-23.583,35.371L141.355,78.856z M12.893,48.315l37.582,34.311l56.445,86.659l-56.063,86.066L13.249,290.25h303.323
	l-37.547-34.866l-56.081-86.102l56.331-86.496l37.541-34.471H12.893z"/>
<path fill="#FFFFFF" d="M176.072,273.59l-11.142,6.429l-11.141-6.429l-20.709-11.946l31.85-47.775l31.851,47.775L176.072,273.59z
	 M153.789,64.971l11.141-6.426l11.142,6.428l20.709,11.947L164.93,124.7l-31.85-47.78L153.789,64.971z M274.541,259.15
	l-58.534-89.865l58.815-90.299l27.077-24.859H27.877l27.062,24.707l58.918,90.454l-58.526,89.838l-27.276,25.314h273.717
	L274.541,259.15z"/>
<polygon fill="#21304E" points="209.07,169.285 270.343,75.209 286.974,59.938 178.975,59.938 205.059,74.983 164.929,135.177 
	124.806,74.983 150.886,59.938 42.862,59.938 59.407,75.042 120.791,169.285 59.813,262.895 42.862,278.627 150.886,278.627 
	124.806,263.58 164.929,203.392 205.059,263.58 178.975,278.627 286.974,278.627 270.066,262.924 "/>
</svg>
