<?xml version="1.0" encoding="utf-8"?>
<!-- Generator: Adobe Illustrator 16.0.4, SVG Export Plug-In . SVG Version: 6.00 Build 0)  -->
<!DOCTYPE svg PUBLIC "-//W3C//DTD SVG 1.1//EN" "http://www.w3.org/Graphics/SVG/1.1/DTD/svg11.dtd">
<svg version="1.1" id="Layer_1" xmlns="http://www.w3.org/2000/svg" xmlns:xlink="http://www.w3.org/1999/xlink" x="0px" y="0px"
	 width="240.641px" height="31.366px" viewBox="0 0 240.641 31.366" enable-background="new 0 0 240.641 31.366"
	 xml:space="preserve">
<g>
	<polygon fill="#0099CC" points="133.412,7.979 128.492,0.824 128.492,4.427 97.202,4.427 97.202,25.84 128.492,25.84 
		128.492,29.442 133.412,22.286 138.332,15.132 	"/>
	<g>
		<path fill="#FFFFFF" d="M15.852,4.427h10.186c3.805,0,6.902,1.718,6.902,5.399c0,2.853-1.349,4.755-4.111,5.399v0.062
			c1.841,0.49,1.964,2.117,3.038,4.724l2.086,5.829h-5.952l-1.227-3.866c-1.166-3.681-1.902-4.602-4.019-4.602h-1.197v8.468h-5.707
			V4.427z M21.559,13.324h1.503c1.84,0,4.172-0.062,4.172-2.486c0-1.993-1.995-2.362-4.172-2.362h-1.503V13.324z"/>
		<path fill="#FFFFFF" d="M35.426,17.864c0-5.307,4.019-8.375,9.295-8.375c5.277,0,9.296,3.068,9.296,8.375
			c0,5.277-4.019,8.344-9.296,8.344C39.445,26.208,35.426,23.141,35.426,17.864z M48.311,17.864c0-2.393-1.043-4.51-3.59-4.51
			c-2.546,0-3.589,2.117-3.589,4.51c0,2.362,1.043,4.479,3.589,4.479C47.268,22.343,48.311,20.226,48.311,17.864z"/>
		<path fill="#FFFFFF" d="M67.149,25.84c-0.031-0.858-0.123-1.688-0.123-2.516h-0.061c-1.258,1.994-2.792,2.883-5.062,2.883
			c-3.16,0-5.983-1.564-5.983-5.031c0-4.877,5.308-5.46,8.252-5.46c0.89,0,1.872,0.092,2.578,0.215
			c-0.031-2.178-1.657-2.761-3.65-2.761c-1.78,0-3.559,0.338-5.094,1.196l-0.092-3.743c1.964-0.797,4.019-1.135,6.381-1.135
			c4.081,0,7.608,1.749,7.608,6.626v5.952c0,1.258,0.062,2.516,0.307,3.773H67.149z M63.344,22.527c2.086,0,3.406-1.902,3.406-3.774
			c-0.706-0.031-1.503-0.092-2.331-0.092c-1.872,0-3.345,0.583-3.345,2.117C61.074,21.883,62.056,22.527,63.344,22.527z"/>
		<path fill="#FFFFFF" d="M92.613,25.84h-5.092v-2.853h-0.062c-0.707,1.78-2.945,3.221-5.492,3.221
			c-4.755,0-7.302-3.927-7.302-8.651c0-3.927,2.424-8.069,6.841-8.069c2.21,0,4.081,0.583,5.492,2.424h0.061V2.832h5.553V25.84z
			 M83.716,21.975c1.84,0,3.375-1.749,3.375-4.08c0-2.424-1.351-4.172-3.375-4.172c-2.148,0-3.345,1.84-3.345,3.958
			C80.372,20.226,81.629,21.975,83.716,21.975z"/>
	</g>
	<g>
		<path fill="#FFFFFF" d="M144.347,14.581l-6.198-10.154h6.264l3.59,7.056l3.683-7.056h6.258l-6.258,10.154l6.872,11.259h-6.812
			l-4.141-7.884l-3.718,7.884h-6.475L144.347,14.581z"/>
		<path fill="#FFFFFF" d="M171.043,25.84c-0.031-0.858-0.124-1.688-0.124-2.516h-0.061c-1.258,1.994-2.792,2.883-5.062,2.883
			c-3.16,0-5.982-1.564-5.982-5.031c0-4.877,5.307-5.46,8.252-5.46c0.89,0,1.872,0.092,2.578,0.215
			c-0.032-2.178-1.657-2.761-3.651-2.761c-1.779,0-3.559,0.338-5.094,1.196l-0.091-3.743c1.963-0.797,4.02-1.135,6.381-1.135
			c4.08,0,7.607,1.749,7.607,6.626v5.952c0,1.258,0.062,2.516,0.309,3.773H171.043z M167.239,22.527
			c2.086,0,3.406-1.902,3.406-3.774c-0.706-0.031-1.503-0.092-2.331-0.092c-1.873,0-3.345,0.583-3.345,2.117
			C164.969,21.883,165.951,22.527,167.239,22.527z"/>
		<path fill="#FFFFFF" d="M177.916,9.856h5.922l3.312,11.382h0.062l3.343-11.382h5.493l-5.923,15.984h-6.287L177.916,9.856z"/>
		<path fill="#FFFFFF" d="M204.239,7.249h-5.522v-4.05h5.522V7.249z M198.716,9.856h5.522V25.84h-5.522V9.856z"/>
		<path fill="#FFFFFF" d="M213.136,19.459c0.308,2.209,1.995,3.068,4.694,3.068c1.503,0,3.221-0.337,4.878-1.228v3.897
			c-1.781,0.706-3.806,1.012-5.861,1.012c-5.275,0-9.294-3.098-9.294-8.375c0-5.276,3.589-8.345,8.559-8.345
			c5.921,0,8.068,4.203,8.068,8.958v1.012H213.136z M219.209,16.329c0-1.84-0.858-3.343-3.067-3.343
			c-1.993,0-2.944,1.503-3.068,3.343H219.209z"/>
		<path fill="#FFFFFF" d="M238.477,14.274c-0.613-0.184-1.227-0.184-1.872-0.184c-2.577,0-4.02,1.872-4.02,5v6.75h-5.521V9.856
			h5.029v2.945h0.063c0.949-2.025,2.33-3.313,4.725-3.313c0.644,0,1.318,0.092,1.87,0.184L238.477,14.274z"/>
	</g>
	<g>
		<path fill="#FFFFFF" d="M4.951,25.706v-1.338H3.474L2.78,22.133h2.17v-1.592h1.592v1.592h2.425c0.796,0,1.2-0.19,1.2-0.91
			c0-0.227-0.05-0.467-0.089-0.694l1.478-0.076c0.05,0.428,0.127,0.858,0.127,1.427c0,2.034-0.896,2.525-2.463,2.525H6.542v1.301
			H4.951z"/>
		<path fill="#FFFFFF" d="M2.06,19.52v-2.273h3.864v-0.026C5.242,16.729,4.8,16.009,4.8,15.024c0-1.794,1.261-2.514,2.626-2.514
			h4.104v2.274H8.35c-1.238,0-1.655,0.43-1.655,1.048c0,0.934,0.644,1.415,2.059,1.415h2.778v2.273H2.06z"/>
		<path fill="#FFFFFF" d="M8.904,9.117c0.909-0.126,1.263-0.821,1.263-1.933c0-0.619-0.139-1.326-0.506-2.007h1.604
			c0.291,0.733,0.417,1.566,0.417,2.412c0,2.171-1.275,3.827-3.448,3.827c-2.174,0-3.435-1.479-3.435-3.524
			c0-2.437,1.73-3.321,3.687-3.321h0.417V9.117z M7.616,6.615c-0.757,0-1.377,0.354-1.377,1.263c0,0.821,0.62,1.212,1.377,1.264
			V6.615z"/>
	</g>
	<g>
		<path fill="#FFFFFF" d="M105.131,11.323h2.021V9.092l3.376-1.05v3.281h2.404v2.404h-2.404v3.663c0,1.202,0.287,1.812,1.374,1.812
			c0.344,0,0.706-0.076,1.049-0.133l0.115,2.231c-0.649,0.076-1.298,0.191-2.155,0.191c-3.072,0-3.815-1.355-3.815-3.72v-4.044
			h-1.965V11.323z"/>
		<path fill="#FFFFFF" d="M114.002,16.302c0-3.3,2.498-5.208,5.78-5.208c3.279,0,5.779,1.907,5.779,5.208
			c0,3.281-2.5,5.188-5.779,5.188C116.5,21.491,114.002,19.583,114.002,16.302z M122.014,16.302c0-1.488-0.649-2.804-2.231-2.804
			c-1.583,0-2.233,1.316-2.233,2.804c0,1.469,0.65,2.785,2.233,2.785C121.365,19.087,122.014,17.771,122.014,16.302z"/>
	</g>
</g>
</svg>
